# xmcd CD database file
#
# Track frame offsets:
#	150
#	20426
#	36236
#	49704
#	67719
#	82110
#	95023
#	114360
#	128595
#	143630
#	186060
#	200959
#	221160
#	237231
#	256361
#	278912
#
# Disc length: 3769 seconds
#
# Revision: 2
# Processed by: cddbd v1.4PL0 Copyright (c) Steve Scherf et al.
# Submitted via: CDex 1.51
#
DISCID=e80eb710
DTITLE=Chloé Sainte-Marie - Je marche à toi
DYEAR=2002
DGENRE=Chanson
TTITLE0=Mishapan Nitassinan
TTITLE1=Simple souffle souple
TTITLE2=Petite annonce amoureuse
TTITLE3=La route, l'île et l'été
TTITLE4=Je marche à toi
TTITLE5=Growing despair
TTITLE6=Les coups donnés
TTITLE7=Brûlots
TTITLE8=Rap n' reel
TTITLE9=E pamuleian e peikussian - Innu
TTITLE10=Comme dans un film
TTITLE11=Le grand besoin
TTITLE12=Peur des humains
TTITLE13=Chamaille chamaille
TTITLE14=Taimaimmat
TTITLE15=Ce qu'il faut dire
EXTD=YEAR: 2002
EXTT0=
EXTT1=
EXTT2=
EXTT3=
EXTT4=
EXTT5=
EXTT6=
EXTT7=
EXTT8=
EXTT9=
EXTT10=
EXTT11=
EXTT12=
EXTT13=
EXTT14=
EXTT15=
PLAYORDER=
